<svg width="21" height="20" viewBox="0 0 21 20" fill="none" xmlns="http://www.w3.org/2000/svg">
<g clip-path="url(#clip0_96_163)">
<path d="M10.9183 5C5.70837 5 1.69958 9.58984 1.69958 9.58984L1.32849 10L1.69958 10.4102C1.69958 10.4102 5.35437 14.5776 10.2152 14.9609C10.4471 14.9902 10.6791 15 10.9183 15C11.1576 15 11.3895 14.9902 11.6215 14.9609C16.4823 14.5776 20.1371 10.4102 20.1371 10.4102L20.5082 10L20.1371 9.58984C20.1371 9.58984 16.1283 5 10.9183 5ZM10.9183 6.25C12.2953 6.25 13.5648 6.62598 14.6683 7.12891C15.0663 7.78809 15.2933 8.54736 15.2933 9.375C15.2933 11.6333 13.599 13.4888 11.4066 13.7305C11.3944 13.7329 11.3798 13.728 11.3676 13.7305C11.2186 13.7378 11.0697 13.75 10.9183 13.75C10.7523 13.75 10.5912 13.7402 10.4301 13.7305C8.23767 13.4888 6.54333 11.6333 6.54333 9.375C6.54333 8.55957 6.76306 7.80029 7.1488 7.14844H7.12927C8.24255 6.63574 9.52673 6.25 10.9183 6.25ZM10.9183 7.5C9.88318 7.5 9.04333 8.33984 9.04333 9.375C9.04333 10.4102 9.88318 11.25 10.9183 11.25C11.9535 11.25 12.7933 10.4102 12.7933 9.375C12.7933 8.33984 11.9535 7.5 10.9183 7.5ZM5.44958 8.08594C5.35193 8.50586 5.29333 8.92822 5.29333 9.375C5.29333 10.4712 5.60583 11.4966 6.15271 12.3633C4.578 11.4526 3.48425 10.3662 3.12537 10C3.42566 9.69238 4.26306 8.87695 5.44958 8.08594ZM16.3871 8.08594C17.5736 8.87695 18.411 9.69238 18.7113 10C18.3524 10.3662 17.2587 11.4526 15.684 12.3633C16.2308 11.4966 16.5433 10.4712 16.5433 9.375C16.5433 8.92822 16.4847 8.50098 16.3871 8.08594Z" fill="#B0B0B0"/>
</g>
<defs>
<clipPath id="clip0_96_163">
<rect width="20" height="20" fill="white" transform="translate(0.918335)"/>
</clipPath>
</defs>
</svg>
