<svg width="20" height="20" viewBox="0 0 20 20" fill="none" xmlns="http://www.w3.org/2000/svg">
<path d="M2.32422 1.42578L1.42578 2.32422L5.29297 6.17188L13.3984 14.2773L17.6758 18.5742L18.5742 17.6758L14.6094 13.7109C17.1704 12.4072 19.0796 10.5688 19.1992 10.4492L19.6094 10.0391L19.2188 9.58984C19.0576 9.40186 15.2466 5 10 5C8.75488 5 7.59521 5.26123 6.54297 5.64453L2.32422 1.42578ZM10 6.25C11.3525 6.25 12.6001 6.59668 13.7109 7.08984C14.1333 7.77832 14.375 8.56201 14.375 9.375C14.375 10.5103 13.938 11.543 13.2227 12.3242L11.4453 10.5469C11.7041 10.2271 11.875 9.81934 11.875 9.375C11.875 8.34229 11.0327 7.5 10 7.5C9.55566 7.5 9.14795 7.6709 8.82812 7.92969L7.53906 6.64062C8.31299 6.40869 9.13086 6.25 10 6.25ZM4.14062 6.79688C2.1167 8.03955 0.871582 9.48242 0.78125 9.58984L0.390625 10.0391L0.800781 10.4492C0.979004 10.6274 5.06103 14.6143 9.41406 14.9609H9.45312C9.63379 14.9756 9.81934 15 10 15C10.1807 15 10.3662 14.9756 10.5469 14.9609H10.5859C11.084 14.9219 11.5845 14.8315 12.0703 14.707L10.9961 13.6328C10.8398 13.6694 10.6714 13.6938 10.5078 13.7109L10.4297 13.7305C10.1367 13.7549 9.86084 13.7549 9.57031 13.7305L9.51172 13.7109C7.2998 13.4619 5.625 11.604 5.625 9.375C5.625 9.04053 5.6665 8.71826 5.74219 8.39844L4.14062 6.79688ZM4.55078 8.02734C4.44092 8.4668 4.375 8.91357 4.375 9.375C4.375 10.3833 4.64844 11.3257 5.11719 12.1484C3.7915 11.3599 2.7002 10.4688 2.12891 9.96094C2.59521 9.49707 3.44238 8.74268 4.55078 8.02734ZM15.4492 8.02734C16.5576 8.74268 17.3853 9.5166 17.8516 9.98047C17.2803 10.4883 16.2085 11.3599 14.8828 12.1484C15.3516 11.3257 15.625 10.3833 15.625 9.375C15.625 8.91602 15.5566 8.4668 15.4492 8.02734ZM10 8.75C10.3442 8.75 10.625 9.03076 10.625 9.375C10.625 9.47754 10.5908 9.56299 10.5469 9.64844L9.72656 8.82812C9.81201 8.78418 9.89746 8.75 10 8.75Z" fill="#B0B0B0"/>
</svg>
