<svg width="25" height="24" viewBox="0 0 25 24" fill="none" xmlns="http://www.w3.org/2000/svg">
<path d="M12.517 3.75C9.62537 3.75 7.26697 6.1084 7.26697 9C7.26697 10.8076 8.18982 12.4131 9.58728 13.3594C6.91248 14.5078 5.01697 17.1621 5.01697 20.25H6.51697C6.51697 16.9277 9.1947 14.25 12.517 14.25C15.8392 14.25 18.517 16.9277 18.517 20.25H20.017C20.017 17.1621 18.1215 14.5078 15.4467 13.3594C16.8441 12.4131 17.767 10.8076 17.767 9C17.767 6.1084 15.4086 3.75 12.517 3.75ZM12.517 5.25C14.597 5.25 16.267 6.91992 16.267 9C16.267 11.0801 14.597 12.75 12.517 12.75C10.4369 12.75 8.76697 11.0801 8.76697 9C8.76697 6.91992 10.4369 5.25 12.517 5.25Z" fill="black"/>
</svg>
